<svg width="123" height="128" viewBox="0 0 123 128" fill="none" xmlns="http://www.w3.org/2000/svg">
<path fill-rule="evenodd" clip-rule="evenodd" d="M122.818 15.2464C122.594 14.9808 122.225 14.8907 121.91 15.0355C117.246 17.1198 112.34 18.6182 107.286 19.5034C112.651 15.4379 116.649 9.80802 118.699 3.3525C118.798 3.04348 118.696 2.70549 118.445 2.50431C118.192 2.30313 117.842 2.27738 117.566 2.44315C111.523 6.05316 104.979 8.59771 98.1054 10.0092C92.0148 3.6422 83.51 0 74.708 0C56.8068 0 42.2449 14.6686 42.2449 32.6993C42.2449 34.8801 42.4542 37.04 42.8696 39.1371C18.0758 37.5953 -5.10758 25.6048 -20.871 6.12881C-21.0324 5.92923 -21.2768 5.81818 -21.5325 5.84393C-21.7865 5.86325 -22.0134 6.0081 -22.1412 6.22859C-25.0171 11.1986 -26.5366 16.8848 -26.5366 22.6692C-26.5366 32.6945 -22.015 42.0679 -14.3154 48.2531C-18.2794 47.7735 -22.1508 46.5165 -25.6419 44.5642C-25.8767 44.4306 -26.1691 44.4322 -26.404 44.569C-26.6389 44.7042 -26.7874 44.9553 -26.7938 45.2289L-26.797 45.6474C-26.797 60.0456 -17.3783 72.6878 -3.97798 76.8853C-7.5074 77.4583 -11.1694 77.4196 -14.7692 76.7276C-15.0344 76.6777 -15.3124 76.7694 -15.4946 76.9754C-15.6751 77.1814 -15.7358 77.4695 -15.6527 77.7303C-11.6344 90.3645 -0.469318 99.2245 12.5268 100.329C1.68605 108.329 -11.1279 112.544 -24.6672 112.544C-27.1613 112.544 -29.673 112.395 -32.1335 112.103C-32.485 112.063 -32.8333 112.274 -32.9548 112.614C-33.0762 112.956 -32.9468 113.339 -32.6432 113.534C-17.9918 122.999 -1.0509 128 16.3502 128C73.27 128 107.283 81.4256 107.283 36.3994C107.283 35.1457 107.259 33.8983 107.209 32.6542C113.35 28.1301 118.621 22.5919 122.871 16.1815C123.061 15.895 123.04 15.5135 122.818 15.2464Z" fill="#1DA1F2"/>
</svg>
